<svg width="16" height="16" viewBox="0 0 16 16" fill="none" xmlns="http://www.w3.org/2000/svg">
<g id="keyboard_double_arrow_right_FILL0_wght400_GRAD0_opsz48 2">
<path id="Vector" d="M6.85 7.98335L3.9 5.03335C3.8 4.93335 3.75 4.81668 3.75 4.68335C3.75 4.55002 3.8 4.43335 3.9 4.33335C4 4.23335 4.11667 4.18335 4.25 4.18335C4.38333 4.18335 4.5 4.23335 4.6 4.33335L7.9 7.63335C7.95556 7.68891 7.99444 7.74446 8.01667 7.80002C8.03889 7.85557 8.05 7.91668 8.05 7.98335C8.05 8.05002 8.03889 8.11113 8.01667 8.16668C7.99444 8.22224 7.95556 8.27779 7.9 8.33335L4.6 11.6333C4.5 11.7333 4.38333 11.7833 4.25 11.7833C4.11667 11.7833 4 11.7333 3.9 11.6333C3.8 11.5333 3.75 11.4167 3.75 11.2833C3.75 11.15 3.8 11.0333 3.9 10.9334L6.85 7.98335ZM11.0667 7.98335L8.11667 5.03335C8.01667 4.93335 7.96667 4.81668 7.96667 4.68335C7.96667 4.55002 8.01667 4.43335 8.11667 4.33335C8.21667 4.23335 8.33333 4.18335 8.46667 4.18335C8.6 4.18335 8.71667 4.23335 8.81667 4.33335L12.1167 7.63335C12.1722 7.68891 12.2111 7.74446 12.2333 7.80002C12.2556 7.85557 12.2667 7.91668 12.2667 7.98335C12.2667 8.05002 12.2556 8.11113 12.2333 8.16668C12.2111 8.22224 12.1722 8.27779 12.1167 8.33335L8.81667 11.6333C8.71667 11.7333 8.6 11.7833 8.46667 11.7833C8.33333 11.7833 8.21667 11.7333 8.11667 11.6333C8.01667 11.5333 7.96667 11.4167 7.96667 11.2833C7.96667 11.15 8.01667 11.0333 8.11667 10.9334L11.0667 7.98335Z" fill="#D2D2D2"/>
</g>
</svg>
