<svg width="212" height="26" viewBox="0 0 212 26" fill="none" xmlns="http://www.w3.org/2000/svg">
<g id="KubeNews">
<path id="Vector" d="M202.19 25.3024C200.824 25.3024 199.58 25.0784 198.46 24.6304C197.363 24.16 196.489 23.5216 195.84 22.7152C195.212 21.8864 194.899 20.9456 194.899 19.8928C194.899 19.736 194.921 19.4784 194.966 19.12H199.536C199.468 19.904 199.704 20.5424 200.241 21.0352C200.779 21.5056 201.54 21.7408 202.526 21.7408C203.422 21.7408 204.161 21.584 204.744 21.2704C205.348 20.9344 205.651 20.4528 205.651 19.8256C205.651 19.2656 205.371 18.8176 204.811 18.4816C204.273 18.1456 203.411 17.7648 202.224 17.3392C201.036 16.9136 200.051 16.4992 199.267 16.096C198.483 15.6928 197.811 15.1328 197.251 14.416C196.691 13.6992 196.411 12.792 196.411 11.6944C196.411 10.5968 196.724 9.62239 197.352 8.77119C198.001 7.91999 198.897 7.25919 200.04 6.78879C201.182 6.31839 202.492 6.08319 203.971 6.08319C205.382 6.08319 206.625 6.31839 207.7 6.78879C208.776 7.25919 209.604 7.91999 210.187 8.77119C210.792 9.59999 211.094 10.552 211.094 11.6272C211.094 11.896 211.083 12.0976 211.06 12.232H206.692C206.76 11.448 206.536 10.8208 206.02 10.3504C205.505 9.87999 204.755 9.64479 203.769 9.64479C202.963 9.64479 202.302 9.82399 201.787 10.1824C201.272 10.5184 201.014 10.9776 201.014 11.56C201.014 12.1424 201.305 12.624 201.888 13.0048C202.47 13.3632 203.366 13.7664 204.576 14.2144C205.785 14.6848 206.748 15.1216 207.465 15.5248C208.204 15.9056 208.843 16.4432 209.38 17.1376C209.918 17.8096 210.187 18.6608 210.187 19.6912C210.187 20.8336 209.84 21.8304 209.145 22.6816C208.451 23.5328 207.499 24.1824 206.289 24.6304C205.08 25.0784 203.713 25.3024 202.19 25.3024Z" fill="white"/>
<path id="Vector_2" d="M191.312 6.38556L182.576 25H177.469L176.394 12.064L170.682 25H165.574L163.424 6.38556H168.162L168.968 20.5648L175.05 6.38556H180.022L181.03 20.5312L186.776 6.38556H191.312Z" fill="white"/>
<path id="Vector_3" d="M148.566 6.08319C150.941 6.08319 152.822 6.74399 154.211 8.06559C155.6 9.36479 156.294 11.1232 156.294 13.3408C156.294 14.0576 156.238 14.696 156.126 15.256C155.992 15.928 155.846 16.5104 155.69 17.0032H142.082C142.059 17.16 142.048 17.384 142.048 17.6752C142.048 18.84 142.384 19.7584 143.056 20.4304C143.75 21.08 144.658 21.4048 145.778 21.4048C146.718 21.4048 147.525 21.2032 148.197 20.8C148.891 20.3744 149.451 19.8256 149.877 19.1536H154.95C154.122 20.9456 152.834 22.424 151.086 23.5888C149.362 24.7312 147.402 25.3024 145.206 25.3024C142.832 25.3024 140.928 24.6304 139.494 23.2864C138.061 21.9424 137.344 20.1168 137.344 17.8096C137.344 17.1376 137.411 16.432 137.546 15.6928C137.882 13.7664 138.565 12.0752 139.595 10.6192C140.648 9.16319 141.947 8.04319 143.493 7.25919C145.038 6.47519 146.73 6.08319 148.566 6.08319ZM151.456 14.1472C151.501 13.7888 151.523 13.5312 151.523 13.3744C151.523 12.2992 151.176 11.4592 150.482 10.8544C149.787 10.2496 148.88 9.94719 147.76 9.94719C146.573 9.94719 145.509 10.328 144.568 11.0896C143.627 11.8288 142.966 12.848 142.586 14.1472H151.456Z" fill="white"/>
<path id="Vector_4" d="M128.092 25H123.355L115.593 8.90561L112.737 25H107.999L112.166 1.51361H116.87L124.665 17.6416L127.521 1.51361H132.225L128.092 25Z" fill="white"/>
<path id="Vector_5" d="M102.247 15.3568C102.247 15.872 102.213 16.3872 102.146 16.9024H89.6804C89.7476 17.9328 90.0276 18.7056 90.5204 19.2208C91.0356 19.7136 91.6852 19.96 92.4692 19.96C93.5668 19.96 94.3508 19.4672 94.8212 18.4816H101.844C101.552 19.7808 100.981 20.9456 100.13 21.976C99.3012 22.984 98.2484 23.7792 96.9716 24.3616C95.6948 24.944 94.2836 25.2352 92.738 25.2352C90.8788 25.2352 89.2212 24.8432 87.7652 24.0592C86.3316 23.2752 85.2004 22.1552 84.3716 20.6992C83.5652 19.2432 83.162 17.5296 83.162 15.5584C83.162 13.5872 83.5652 11.8848 84.3716 10.4512C85.178 8.99516 86.298 7.87516 87.7316 7.09116C89.1876 6.30716 90.8564 5.91516 92.738 5.91516C94.5972 5.91516 96.2436 6.29596 97.6772 7.05756C99.1108 7.81916 100.231 8.91676 101.037 10.3504C101.844 11.7616 102.247 13.4304 102.247 15.3568ZM95.5268 13.7104C95.5268 12.904 95.258 12.2768 94.7204 11.8288C94.1828 11.3584 93.5108 11.1232 92.7044 11.1232C91.898 11.1232 91.2372 11.3472 90.722 11.7952C90.2068 12.2208 89.8708 12.8592 89.714 13.7104H95.5268Z" fill="#69D6FF"/>
<path id="Vector_6" d="M63.6173 8.77119C64.1325 7.87519 64.8605 7.18079 65.8013 6.68799C66.7421 6.17279 67.8509 5.91519 69.1277 5.91519C70.6285 5.91519 71.9837 6.30719 73.1933 7.09119C74.4253 7.87519 75.3885 8.99519 76.0829 10.4512C76.7997 11.9072 77.1581 13.6096 77.1581 15.5584C77.1581 17.5072 76.7997 19.2208 76.0829 20.6992C75.3885 22.1552 74.4253 23.2752 73.1933 24.0592C71.9837 24.8432 70.6285 25.2352 69.1277 25.2352C67.8509 25.2352 66.7421 24.9888 65.8013 24.496C64.8605 23.9808 64.1325 23.2752 63.6173 22.3792V25H57.0317V0.135986H63.6173V8.77119ZM70.4717 15.5584C70.4717 14.3264 70.1357 13.3744 69.4637 12.7024C68.8141 12.008 68.0077 11.6608 67.0445 11.6608C66.0813 11.6608 65.2637 12.008 64.5917 12.7024C63.9421 13.3968 63.6173 14.3488 63.6173 15.5584C63.6173 16.7904 63.9421 17.7536 64.5917 18.448C65.2637 19.1424 66.0813 19.4896 67.0445 19.4896C68.0077 19.4896 68.8141 19.1424 69.4637 18.448C70.1357 17.7312 70.4717 16.768 70.4717 15.5584Z" fill="#69D6FF"/>
<path id="Vector_7" d="M48.9157 6.15039V25H42.2965V22.312C41.7365 23.1632 40.9637 23.8576 39.9781 24.3952C38.9925 24.9104 37.8613 25.168 36.5845 25.168C34.3893 25.168 32.6533 24.4512 31.3765 23.0176C30.1221 21.5616 29.4949 19.5904 29.4949 17.104V6.15039H36.0469V16.264C36.0469 17.3392 36.3269 18.1904 36.8869 18.8176C37.4693 19.4224 38.2309 19.7248 39.1717 19.7248C40.1349 19.7248 40.8965 19.4224 41.4565 18.8176C42.0165 18.1904 42.2965 17.3392 42.2965 16.264V6.15039H48.9157Z" fill="#69D6FF"/>
<path id="Vector_8" d="M14.8928 25L7.46719 14.6176V25H0.881592V1.31201H7.46719V11.5264L14.8256 1.31201H22.4192L13.7168 12.8032L22.856 25H14.8928Z" fill="#69D6FF"/>
</g>
</svg>
